<?xml version="1.0" encoding="UTF-8" standalone="no"?>
<svg
   xmlns:dc="http://purl.org/dc/elements/1.1/"
   xmlns:cc="http://creativecommons.org/ns#"
   xmlns:rdf="http://www.w3.org/1999/02/22-rdf-syntax-ns#"
   xmlns:svg="http://www.w3.org/2000/svg"
   xmlns="http://www.w3.org/2000/svg"
   xmlns:sodipodi="http://sodipodi.sourceforge.net/DTD/sodipodi-0.dtd"
   xmlns:inkscape="http://www.inkscape.org/namespaces/inkscape"
   height="512"
   viewBox="0 0 60 60"
   width="512"
   version="1.1"
   id="svg482"
   sodipodi:docname="will.svg"
   inkscape:version="0.92.4 (5da689c313, 2019-01-14)">
  <metadata
     id="metadata488">
    <rdf:RDF>
      <cc:Work
         rdf:about="">
        <dc:format>image/svg+xml</dc:format>
        <dc:type
           rdf:resource="http://purl.org/dc/dcmitype/StillImage" />
      </cc:Work>
    </rdf:RDF>
  </metadata>
  <defs
     id="defs486" />
  <sodipodi:namedview
     pagecolor="#ffffff"
     bordercolor="#666666"
     borderopacity="1"
     objecttolerance="10"
     gridtolerance="10"
     guidetolerance="10"
     inkscape:pageopacity="0"
     inkscape:pageshadow="2"
     inkscape:window-width="1920"
     inkscape:window-height="1017"
     id="namedview484"
     showgrid="false"
     inkscape:zoom="0.4609375"
     inkscape:cx="-96.542373"
     inkscape:cy="256"
     inkscape:window-x="-8"
     inkscape:window-y="-8"
     inkscape:window-maximized="1"
     inkscape:current-layer="svg482" />
  <g
     id="Page-1"
     fill="none"
     fill-rule="evenodd"
     style="fill:#f7d4bc;fill-opacity:1">
    <g
       id="051---Will-Document"
       fill="rgb(0,0,0)"
       fill-rule="nonzero"
       style="fill:#f7d4bc;fill-opacity:1">
      <path
         id="Shape"
         d="m38.4 45.35c-.0631882-.2678421-.0897636-.5430159-.079-.818.0789069-.788167-.1589045-1.5753552-.661-2.188-.6124742-.5031479-1.4004126-.7410772-2.189-.661-.2747052.0106435-.5495773-.0162718-.817-.08-.217875-.1402976-.4165464-.3083783-.591-.5-.5111156-.6304262-1.2548763-1.028084-2.063-1.103-.8075155.0764542-1.5501308.4751593-2.06 1.106-.1743638.1913274-.3726646.359379-.59.5-.2677819.0636098-.542968.0905228-.818.08-.7884501-.080355-1.5763726.1572096-2.189.66-.5020549.6130573-.7398441 1.4005319-.661 2.189.0107636.2749841-.0158118.5501579-.079.818-.140623.217634-.3086699.4162655-.5.591-.6292212.5090949-1.0268152 1.250213-1.103 2.056.0761607.8073252.4749496 1.549736 1.106 2.059.1913301.1747345.359377.373366.5.591.0631882.2678421.0897636.5430159.079.818-.0789069.788167.1589045 1.5753552.661 2.188.6124742.5031479 1.4004126.7410772 2.189.661.2747052-.0106435.5495773.0162718.817.08.217875.1402976.4165464.3083783.591.5.5096984.6290126 1.2510219 1.0265234 2.057 1.103.8075155-.0764542 1.5501308-.4751593 2.06-1.106.1743638-.1913274.3726646-.359379.59-.5.2677819-.0636098.542968-.0905228.818-.08.7884501.080355 1.5763726-.1572096 2.189-.66.5020549-.6130573.7398441-1.4005319.661-2.189-.0107636-.2749841.0158118-.5501579.079-.818.140623-.217634.3086699-.4162655.5-.591.6292212-.5090949 1.0268152-1.250213 1.103-2.056-.0761607-.8073252-.4749496-1.549736-1.106-2.059-.1892177-.1751067-.3552344-.3737218-.494-.591zm-.938 3.316c-.3776085.3449697-.6860989.758666-.909 1.219-.1729096.4950119-.2515989 1.0180244-.232 1.542.007453.2681032-.0133281.5362465-.062.8-.2702877.0710624-.5498482.1004011-.829.087-.5246236-.0194955-1.0482724.0591875-1.544.232-.4588133.223527-.8713559.5315769-1.216.908-.1921157.2129706-.4153002.3956986-.662.542-.2518591-.143104-.478812-.3261524-.672-.542-.3448105-.3766673-.7577292-.6847447-1.217-.908-.4950119-.1729096-1.0180244-.2515989-1.542-.232-.2701482.0079511-.5403682-.0131703-.806-.063-.0690949-.270293-.0980714-.5492767-.086-.828.0195989-.5239756-.0590904-1.0469881-.232-1.542-.2229011-.460334-.5313915-.8740303-.909-1.219-.2133417-.1903963-.3967388-.4118887-.544-.657.1428176-.2514803.3255294-.4780969.541-.671.3776085-.3449697.6860989-.758666.909-1.219.1729096-.4950119.2515989-1.0180244.232-1.542-.0069508-.2680905.0138263-.5361816.062-.8.2703796-.0705586.5498629-.0998892.829-.087.5246236.0194955 1.0482724-.0591875 1.544-.232.4588133-.223527.8713559-.5315769 1.216-.908.193344-.2147865.4182527-.3988947.667-.546.2518591.143104.478812.3261524.672.542.3448105.3766673.7577292.6847447 1.217.908.4950119.1729096 1.0180244.2515989 1.542.232.2701356-.0074417.5403015.0136755.806.063.0696018.2702021.0985863.5492614.086.828-.0195989.5239756.0590904 1.0469881.232 1.542.2229011.460334.5313915.8740303.909 1.219.2115542.1933956.3923078.4179887.536.666-.145215.248359-.3276704.4729713-.541.666z"
         style="fill:#f7d4bc;fill-opacity:1" />
      <path
         id="path448"
         d="m32 45c-1.6568542 0-3 1.3431458-3 3s1.3431458 3 3 3 3-1.3431458 3-3-1.3431458-3-3-3zm0 4c-.5522847 0-1-.4477153-1-1s.4477153-1 1-1 1 .4477153 1 1-.4477153 1-1 1z"
         style="fill:#f7d4bc;fill-opacity:1" />
      <path
         id="path450"
         d="m10.051 15.316c.1205852.3625429.4372107.6246901.8158871.6755063.3786765.0508163.7532128-.118581.9651129-.4365063l1.168-1.755 1.168 1.752c.2119001.3179253.5864364.4873226.9651129.4365063.3786764-.0508162.6953019-.3129634.8158871-.6755063l2-6c.174522-.52467051-.1093295-1.091478-.634-1.26599998s-1.091478.10932948-1.266.63399998l-1.349 4.063-.866-1.3c-.1961648-.2622542-.5044975-.4166681-.832-.4166681s-.6358352.1544139-.832.4166681l-.866 1.3-1.355-4.06c-.17452198-.52467051-.74132949-.80852198-1.266-.634s-.80852198.74132949-.634 1.266z"
         style="fill:#f7d4bc;fill-opacity:1" />
      <path
         id="path452"
         d="m21 16c.5522847 0 1-.4477153 1-1v-6c0-.55228475-.4477153-1-1-1s-1 .44771525-1 1v6c0 .5522847.4477153 1 1 1z"
         style="fill:#f7d4bc;fill-opacity:1" />
      <path
         id="path454"
         d="m26 16h2c.5522847 0 1-.4477153 1-1s-.4477153-1-1-1h-2v-5c0-.55228475-.4477153-1-1-1s-1 .44771525-1 1v5c0 1.1045695.8954305 2 2 2z"
         style="fill:#f7d4bc;fill-opacity:1" />
      <path
         id="path456"
         d="m33 16h2c.5522847 0 1-.4477153 1-1s-.4477153-1-1-1h-2v-5c0-.55228475-.4477153-1-1-1s-1 .44771525-1 1v5c0 1.1045695.8954305 2 2 2z"
         style="fill:#f7d4bc;fill-opacity:1" />
      <path
         id="path458"
         d="m51 0h-42c-4.96827817.00551113-8.99448887 4.03172183-9 9v42c.00551113 4.9682782 4.03172183 8.9944889 9 9h42c4.9682782-.0055111 8.9944889-4.0317218 9-9v-4c0-1.1045695-.8954305-2-2-2h-14v-30h14c1.1045695 0 2-.8954305 2-2v-4c-.0055111-4.96827817-4.0317218-8.99448887-9-9zm-42 58c-3.86416566-.0044086-6.99559136-3.1358343-7-7v-42c.00440864-3.86416566 3.13583434-6.99559136 7-7h36.349c-2.1178521 1.70651394-3.3491616 4.28016776-3.349 7v42c-.0001616 2.7198322 1.2311479 5.2934861 3.349 7zm49-11v4c-.0000001 3.8659932-3.1340068 6.9999998-7 6.9999998s-6.9999999-3.1340066-7-6.9999998v-4zm0-34h-14v-4c.0000001-3.86599317 3.1340068-6.99999979 7-6.99999979s6.9999999 3.13400662 7 6.99999979z"
         style="fill:#f7d4bc;fill-opacity:1" />
      <path
         id="path460"
         d="m6 22h32c.5522847 0 1-.4477153 1-1s-.4477153-1-1-1h-32c-.55228475 0-1 .4477153-1 1s.44771525 1 1 1z"
         style="fill:#f7d4bc;fill-opacity:1" />
      <path
         id="path462"
         d="m38 24h-24c-.5522847 0-1 .4477153-1 1s.4477153 1 1 1h24c.5522847 0 1-.4477153 1-1s-.4477153-1-1-1z"
         style="fill:#f7d4bc;fill-opacity:1" />
      <path
         id="path464"
         d="m6 26h4c.5522847 0 1-.4477153 1-1s-.4477153-1-1-1h-4c-.55228475 0-1 .4477153-1 1s.44771525 1 1 1z"
         style="fill:#f7d4bc;fill-opacity:1" />
      <path
         id="path466"
         d="m6 30h32c.5522847 0 1-.4477153 1-1s-.4477153-1-1-1h-32c-.55228475 0-1 .4477153-1 1s.44771525 1 1 1z"
         style="fill:#f7d4bc;fill-opacity:1" />
      <path
         id="path468"
         d="m38 32h-10c-.5522847 0-1 .4477153-1 1s.4477153 1 1 1h10c.5522847 0 1-.4477153 1-1s-.4477153-1-1-1z"
         style="fill:#f7d4bc;fill-opacity:1" />
      <path
         id="path470"
         d="m6 34h18c.5522847 0 1-.4477153 1-1s-.4477153-1-1-1h-18c-.55228475 0-1 .4477153-1 1s.44771525 1 1 1z"
         style="fill:#f7d4bc;fill-opacity:1" />
      <path
         id="path472"
         d="m6 38h32c.5522847 0 1-.4477153 1-1s-.4477153-1-1-1h-32c-.55228475 0-1 .4477153-1 1s.44771525 1 1 1z"
         style="fill:#f7d4bc;fill-opacity:1" />
      <path
         id="path474"
         d="m11 41c0-.5522847-.4477153-1-1-1h-4c-.55228475 0-1 .4477153-1 1s.44771525 1 1 1h4c.5522847 0 1-.4477153 1-1z"
         style="fill:#f7d4bc;fill-opacity:1" />
      <path
         id="path476"
         d="m14 43c-.5522847 0-1 .4477153-1 1 .0042446.7964372-.0378264 1.5924473-.126 2.384-.5896673-.2616387-1.2289513-.3926339-1.874-.384-1.65685425 0-3 1.3431458-3 3s1.34314575 3 3 3c1.3953586-.0349815 2.6196271-.9394933 3.063-2.263 1.1259985.8651264 2.5178628 1.3116402 3.937 1.263 1.6605451-.099803 3.1442316-1.0710469 3.9-2.553.2485281-.4934664.0499664-1.0949718-.4435-1.3435-.4934664-.2485281-1.0949719-.0499664-1.3435.4435-.4179204.8064282-1.2104156 1.3513859-2.113 1.453-1.2378834.0415315-2.4359425-.4405965-3.3-1.328.216147-1.2117263.316599-2.4412585.3-3.672 0-.5522847-.4477153-1-1-1zm-4 6c0-.5522847.4477153-1 1-1 .5110894-.0133654 1.0135558.1334933 1.437.42-.831 2.361-2.437 1.632-2.437.58z"
         style="fill:#f7d4bc;fill-opacity:1" />
      <path
         id="path478"
         d="m22 54h-14c-.55228475 0-1 .4477153-1 1s.44771525 1 1 1h14c.5522847 0 1-.4477153 1-1s-.4477153-1-1-1z"
         style="fill:#f7d4bc;fill-opacity:1" />
    </g>
  </g>
</svg>
